<svg width="137" height="135" viewBox="0 0 137 135" fill="none" xmlns="http://www.w3.org/2000/svg">
<rect y="4" width="137" height="131" rx="32" fill="#222F30"/>
<path d="M90.5867 111.191L90.4916 111.248L90.6088 111.228L90.5867 111.191ZM86.9335 24.7216L73.9119 47.3296C72.0476 50.567 72.0476 54.2728 73.9119 57.5089L86.8645 79.9956L93.2074 91.0047L94.0198 112.097L99.6935 102.264L99.6974 102.268L102.873 96.7579L102.952 96.6196L107.462 88.7891L117.649 71.1042C119.45 67.9791 119.45 64.4025 117.649 61.2773L107.462 43.5925L97.2758 25.9077C96.7056 24.9173 96.0052 24.0613 95.1993 23.3541C93.9377 22.2449 92.4015 21.8052 90.7455 22.0792C89.0908 22.3519 87.7758 23.2653 86.9374 24.7216H86.9335Z" fill="#CEF79F"/>
<path d="M46.4091 111.191L46.5054 111.248L46.3896 111.228L46.4091 111.191ZM50.0635 24.7216L63.0864 47.3296C64.9508 50.567 64.9508 54.2728 63.0864 57.5089L50.1338 79.9956L43.791 91.0047L42.9786 112.097L37.3036 102.264V102.268L34.127 96.7579L34.0476 96.6196L29.5365 88.7891L19.3504 71.1042C17.5499 67.9791 17.5499 64.4025 19.3504 61.2773L29.5378 43.5925L39.7238 25.9077C40.2941 24.9173 40.9945 24.0613 41.8004 23.3541C43.0619 22.2449 44.5982 21.8052 46.2529 22.0792C47.9102 22.3519 49.2238 23.2653 50.0622 24.7216H50.0635Z" fill="#CEF79F"/>
<path d="M91.4804 99.57C91.4805 99.57 91.4805 99.57 91.4805 99.5699C93.6351 95.8289 93.6351 91.5464 91.4805 87.8066L95.1662 94.2031L95.3094 94.4523C98.1723 99.4225 98.1684 105.114 95.3003 110.081L94.0934 112.17C92.3176 115.243 89.2751 117 85.7313 117H51.2674C47.7236 117 44.6811 115.243 42.9066 112.17L41.6997 110.081C38.8303 105.114 38.8264 99.4239 41.6893 94.4523L41.8325 94.2031L45.5169 87.8066C44.1883 90.1134 43.679 92.6256 43.9888 95.0898C44.3796 98.198 46.8389 100.59 49.7692 101.698C55.3775 103.818 62.3526 104.287 69.016 104.256C80.6147 104.256 88.8605 102.618 91.4784 99.5709C91.4789 99.5703 91.4796 99.57 91.4804 99.57Z" fill="#CEF79F"/>
</svg>
